<svg version="1.1" xmlns="http://www.w3.org/2000/svg" xmlns:xlink="http://www.w3.org/1999/xlink" width="48" height="48"><defs><linearGradient x1="14.22989" y1="14.22988" x2="54.98331" y2="54.98332" gradientUnits="userSpaceOnUse" id="color-1"><stop offset="0" stop-color="#000000" stop-opacity="0.3"></stop><stop offset="1" stop-color="#000000" stop-opacity="0"></stop></linearGradient><linearGradient x1="33.625" y1="14.375" x2="43" y2="23.75" gradientUnits="userSpaceOnUse" id="color-2"><stop offset="0" stop-color="#000000" stop-opacity="0.3"></stop><stop offset="1" stop-color="#000000" stop-opacity="0"></stop></linearGradient><filter id="dropshadow-base"><feColorMatrix type="matrix" values="0 0 0 0 0  0 0 0 0 0  0 0 0 0 0  0 0 0 .8 0"></feColorMatrix> <feOffset dx="0" dy="1"></feOffset> <feGaussianBlur stdDeviation="1"></feGaussianBlur> <feComposite in="SourceGraphic"></feComposite></filter><filter id="dropshadow-banner" x="-10%" y="-10%" width="120%" height="130%"><feColorMatrix type="matrix" values="0 0 0 0 0  0 0 0 0 0  0 0 0 0 0  0 0 0 .4 0"></feColorMatrix> <feOffset dx="0" dy="1"></feOffset> <feGaussianBlur stdDeviation="0.5"></feGaussianBlur> <feComposite in="SourceGraphic"></feComposite></filter></defs><g fill="none" fill-rule="nonzero" stroke="none" stroke-width="none" stroke-linecap="butt" stroke-linejoin="miter" stroke-miterlimit="10" stroke-dasharray="" stroke-dashoffset="0" font-family="none" font-weight="none" font-size="none" text-anchor="none" style="mix-blend-mode: normal"><path d="M7,43c-1.10457,0 -2,-0.89543 -2,-2v-34c0,-1.10457 0.89543,-2 2,-2l26,0l10,10v26c0,1.10457 -0.89543,2 -2,2z" id="base 1 5 1 1 2" fill="#512da8" stroke-width="1"></path><path d="M17.10307,26.78319c0,0 0,0 0,0c-0.1864,-0.1864 -0.3021,-0.44351 -0.3021,-0.72633c0,-0.35967 0.18712,-0.67775 0.46881,-0.86172l-2.88884,-2.88884c-0.0932,-0.0932 -0.15105,-0.22176 -0.15105,-0.36317c0,-0.28283 0.23141,-0.51422 0.51422,-0.51422c0.14141,0 0.26997,0.05785 0.36317,0.15105l21.2132,21.2132c0.00063,0.00063 0.00126,0.00127 0.00189,0.0019l0.20492,0.20492l-3.20742,0zM17.10307,30.89693c-0.1864,-0.1864 -0.3021,-0.44351 -0.3021,-0.72633c0,-0.35967 0.18712,-0.67775 0.46881,-0.86172l-2.88884,-2.88884c-0.0932,-0.0932 -0.15105,-0.22176 -0.15105,-0.36317c0,-0.28283 0.23141,-0.51422 0.51422,-0.51422c0.14141,0 0.26997,0.05785 0.36317,0.15105l17.3063,17.3063h-3.20743zM17.10307,22.66947c0,0 0,0 0,0c-0.1864,-0.1864 -0.3021,-0.44351 -0.3021,-0.72633c0,-0.56564 0.46279,-1.02843 1.02843,-1.02843c0.28282,0 0.53993,0.1157 0.72633,0.3021l3.29984,3.29984c0.02898,-0.00161 0.05817,-0.00243 0.08756,-0.00243c0.15904,0 0.31237,0.02392 0.4566,0.06837l-1.54803,-1.54803c-0.27896,-0.27896 -0.45123,-0.66463 -0.45123,-1.09143c0,-0.02939 0.00082,-0.05858 0.00243,-0.08756l-3.29984,-3.29984c-0.1864,-0.1864 -0.3021,-0.44351 -0.3021,-0.72633c0,-0.56564 0.46279,-1.02843 1.02843,-1.02843c0.28282,0 0.53993,0.1157 0.72633,0.3021l3.29984,3.29984c0.02898,-0.00161 0.05817,-0.00243 0.08756,-0.00243c0.4268,0 0.81246,0.17226 1.09143,0.45123l1.54801,1.54801c-0.04445,-0.14422 -0.06837,-0.29755 -0.06837,-0.45659c0,-0.02939 0.00082,-0.05859 0.00243,-0.08757l-3.29983,-3.29983c-0.1864,-0.1864 -0.3021,-0.44351 -0.3021,-0.72633c0,-0.56564 0.46279,-1.02843 1.02843,-1.02843c0.28282,0 0.53993,0.1157 0.72633,0.3021l0,0l3.29984,3.29984c0.02897,-0.00161 0.05817,-0.00243 0.08755,-0.00243c0.4268,0 0.81246,0.17226 1.09143,0.45123l15.85171,15.85171v4.29658c0,1.10457 -0.89543,2 -2,2l-4.29659,0l-15.8517,-15.8517c-0.27896,-0.27896 -0.45123,-0.66463 -0.45123,-1.09143c0,-0.02939 0.00082,-0.05858 0.00243,-0.08756zM25.69369,15.10727c-0.0932,-0.0932 -0.15105,-0.22176 -0.15105,-0.36317c0,-0.28283 0.23141,-0.51422 0.51422,-0.51422c0.14141,0 0.26997,0.05785 0.36317,0.15105l2.88885,2.88885c0.18396,-0.28169 0.50205,-0.46881 0.86172,-0.46881c0.28282,0 0.53993,0.1157 0.72633,0.3021l12.10307,12.10307v3.20743zM32.89272,26.42004c-0.00089,-0.00089 -0.00179,-0.00179 -0.00267,-0.00269l-11.31008,-11.31008c-0.0932,-0.0932 -0.15105,-0.22176 -0.15105,-0.36317c0,-0.28283 0.23141,-0.51422 0.51422,-0.51422c0.14141,0 0.26997,0.05785 0.36317,0.15105l2.88884,2.88884c0.18396,-0.28169 0.50205,-0.4688 0.86171,-0.4688c0.28282,0 0.53993,0.1157 0.72633,0.3021l4.11373,4.11373c0,0 0,0 0,0c0,0 0,0 0,0l12.10307,12.10307v3.20744z" fill="url(#color-1)" stroke-width="1"></path><path d="M17.8294,25.02843c-0.56564,0 -1.02843,0.46279 -1.02843,1.02843c0,0.56564 0.46279,1.02843 1.02843,1.02843c0.56564,0 1.02843,-0.46279 1.02843,-1.02843c0,-0.56564 -0.46279,-1.02843 -1.02843,-1.02843zM17.8294,29.14216c-0.56564,0 -1.02843,0.46279 -1.02843,1.02843c0,0.56564 0.46279,1.02843 1.02843,1.02843c0.56564,0 1.02843,-0.46279 1.02843,-1.02843c0,-0.56564 -0.46279,-1.02843 -1.02843,-1.02843zM17.8294,20.9147c-0.56564,0 -1.02843,0.46279 -1.02843,1.02843c0,0.56564 0.46279,1.02843 1.02843,1.02843c0.56564,0 1.02843,-0.46279 1.02843,-1.02843c0,-0.56564 -0.46279,-1.02843 -1.02843,-1.02843zM14.74411,21.42892c-0.28282,0 -0.51422,0.2314 -0.51422,0.51422c0,0.28282 0.2314,0.51422 0.51422,0.51422c0.28282,0 0.51422,-0.2314 0.51422,-0.51422c0,-0.28282 -0.2314,-0.51422 -0.51422,-0.51422zM17.8294,16.80097c-0.56564,0 -1.02843,0.46279 -1.02843,1.02843c0,0.56564 0.46279,1.02843 1.02843,1.02843c0.56564,0 1.02843,-0.46279 1.02843,-1.02843c0,-0.56564 -0.46279,-1.02843 -1.02843,-1.02843zM33.25589,22.45735c0.28282,0 0.51422,-0.2314 0.51422,-0.51422c0,-0.28282 -0.2314,-0.51422 -0.51422,-0.51422c-0.28282,0 -0.51422,0.2314 -0.51422,0.51422c0,0.28282 0.2314,0.51422 0.51422,0.51422zM26.05687,18.85784c0.56564,0 1.02843,-0.46279 1.02843,-1.02843c0,-0.56564 -0.46279,-1.02843 -1.02843,-1.02843c-0.56564,0 -1.02843,0.46279 -1.02843,1.02843c0,0.56564 0.46279,1.02843 1.02843,1.02843zM26.05687,15.25832c0.28282,0 0.51422,-0.2314 0.51422,-0.51422c0,-0.28282 -0.2314,-0.51422 -0.51422,-0.51422c-0.28282,0 -0.51422,0.2314 -0.51422,0.51422c0,0.28282 0.2314,0.51422 0.51422,0.51422zM14.74411,25.54265c-0.28282,0 -0.51422,0.2314 -0.51422,0.51422c0,0.28282 0.2314,0.51422 0.51422,0.51422c0.28282,0 0.51422,-0.2314 0.51422,-0.51422c0,-0.28282 -0.2314,-0.51422 -0.51422,-0.51422zM21.94313,32.74168c-0.28282,0 -0.51422,0.2314 -0.51422,0.51422c0,0.28282 0.2314,0.51422 0.51422,0.51422c0.28282,0 0.51422,-0.2314 0.51422,-0.51422c0,-0.28282 -0.2314,-0.51422 -0.51422,-0.51422zM21.94313,15.25832c0.28282,0 0.51422,-0.2314 0.51422,-0.51422c0,-0.28282 -0.2314,-0.51422 -0.51422,-0.51422c-0.28282,0 -0.51422,0.2314 -0.51422,0.51422c0,0.28282 0.2314,0.51422 0.51422,0.51422zM21.94313,18.85784c0.56564,0 1.02843,-0.46279 1.02843,-1.02843c0,-0.56564 -0.46279,-1.02843 -1.02843,-1.02843c-0.56564,0 -1.02843,0.46279 -1.02843,1.02843c0,0.56564 0.46279,1.02843 1.02843,1.02843zM21.94313,24.51422c-0.8536,0 -1.54265,0.68905 -1.54265,1.54265c0,0.8536 0.68905,1.54265 1.54265,1.54265c0.8536,0 1.54265,-0.68905 1.54265,-1.54265c0,-0.8536 -0.68905,-1.54265 -1.54265,-1.54265zM30.1706,25.02843c-0.56564,0 -1.02843,0.46279 -1.02843,1.02843c0,0.56564 0.46279,1.02843 1.02843,1.02843c0.56564,0 1.02843,-0.46279 1.02843,-1.02843c0,-0.56564 -0.46279,-1.02843 -1.02843,-1.02843zM30.1706,29.14216c-0.56564,0 -1.02843,0.46279 -1.02843,1.02843c0,0.56564 0.46279,1.02843 1.02843,1.02843c0.56564,0 1.02843,-0.46279 1.02843,-1.02843c0,-0.56564 -0.46279,-1.02843 -1.02843,-1.02843zM30.1706,20.9147c-0.56564,0 -1.02843,0.46279 -1.02843,1.02843c0,0.56564 0.46279,1.02843 1.02843,1.02843c0.56564,0 1.02843,-0.46279 1.02843,-1.02843c0,-0.56564 -0.46279,-1.02843 -1.02843,-1.02843zM30.1706,16.80097c-0.56564,0 -1.02843,0.46279 -1.02843,1.02843c0,0.56564 0.46279,1.02843 1.02843,1.02843c0.56564,0 1.02843,-0.46279 1.02843,-1.02843c0,-0.56564 -0.46279,-1.02843 -1.02843,-1.02843zM33.25589,25.54265c-0.28282,0 -0.51422,0.2314 -0.51422,0.51422c0,0.28282 0.2314,0.51422 0.51422,0.51422c0.28282,0 0.51422,-0.2314 0.51422,-0.51422c0,-0.28282 -0.2314,-0.51422 -0.51422,-0.51422zM26.05687,29.14216c-0.56564,0 -1.02843,0.46279 -1.02843,1.02843c0,0.56564 0.46279,1.02843 1.02843,1.02843c0.56564,0 1.02843,-0.46279 1.02843,-1.02843c0,-0.56564 -0.46279,-1.02843 -1.02843,-1.02843zM26.05687,32.74168c-0.28282,0 -0.51422,0.2314 -0.51422,0.51422c0,0.28282 0.2314,0.51422 0.51422,0.51422c0.28282,0 0.51422,-0.2314 0.51422,-0.51422c0,-0.28282 -0.2314,-0.51422 -0.51422,-0.51422zM21.94313,20.40049c-0.8536,0 -1.54265,0.68905 -1.54265,1.54265c0,0.8536 0.68905,1.54265 1.54265,1.54265c0.8536,0 1.54265,-0.68905 1.54265,-1.54265c0,-0.8536 -0.68905,-1.54265 -1.54265,-1.54265zM21.94313,29.14216c-0.56564,0 -1.02843,0.46279 -1.02843,1.02843c0,0.56564 0.46279,1.02843 1.02843,1.02843c0.56564,0 1.02843,-0.46279 1.02843,-1.02843c0,-0.56564 -0.46279,-1.02843 -1.02843,-1.02843zM26.05687,24.51422c-0.8536,0 -1.54265,0.68905 -1.54265,1.54265c0,0.8536 0.68905,1.54265 1.54265,1.54265c0.8536,0 1.54265,-0.68905 1.54265,-1.54265c0,-0.8536 -0.68905,-1.54265 -1.54265,-1.54265zM26.05687,20.40049c-0.8536,0 -1.54265,0.68905 -1.54265,1.54265c0,0.8536 0.68905,1.54265 1.54265,1.54265c0.8536,0 1.54265,-0.68905 1.54265,-1.54265c0,-0.8536 -0.68905,-1.54265 -1.54265,-1.54265z" fill="none" stroke-width="0"></path><path d="M18.85784,26.05687c0,0.56564 -0.46279,1.02843 -1.02843,1.02843c-0.56564,0 -1.02843,-0.46279 -1.02843,-1.02843c0,-0.56564 0.46279,-1.02843 1.02843,-1.02843c0.56564,0 1.02843,0.46279 1.02843,1.02843zM18.85784,30.1706c0,0.56564 -0.46279,1.02843 -1.02843,1.02843c-0.56564,0 -1.02843,-0.46279 -1.02843,-1.02843c0,-0.56564 0.46279,-1.02843 1.02843,-1.02843c0.56564,0 1.02843,0.46279 1.02843,1.02843zM18.85784,21.94313c0,0.56564 -0.46279,1.02843 -1.02843,1.02843c-0.56564,0 -1.02843,-0.46279 -1.02843,-1.02843c0,-0.56564 0.46279,-1.02843 1.02843,-1.02843c0.56564,0 1.02843,0.46279 1.02843,1.02843zM15.25832,21.94313c0,0.28282 -0.2314,0.51422 -0.51422,0.51422c-0.28282,0 -0.51422,-0.2314 -0.51422,-0.51422c0,-0.28282 0.2314,-0.51422 0.51422,-0.51422c0.28282,0 0.51422,0.2314 0.51422,0.51422zM18.85784,17.8294c0,0.56564 -0.46279,1.02843 -1.02843,1.02843c-0.56564,0 -1.02843,-0.46279 -1.02843,-1.02843c0,-0.56564 0.46279,-1.02843 1.02843,-1.02843c0.56564,0 1.02843,0.46279 1.02843,1.02843zM32.74168,21.94313c0,-0.28282 0.2314,-0.51422 0.51422,-0.51422c0.28282,0 0.51422,0.2314 0.51422,0.51422c0,0.28282 -0.2314,0.51422 -0.51422,0.51422c-0.28282,0 -0.51422,-0.2314 -0.51422,-0.51422zM25.02843,17.8294c0,-0.56564 0.46279,-1.02843 1.02843,-1.02843c0.56564,0 1.02843,0.46279 1.02843,1.02843c0,0.56564 -0.46279,1.02843 -1.02843,1.02843c-0.56564,0 -1.02843,-0.46279 -1.02843,-1.02843zM25.54265,14.74411c0,-0.28282 0.2314,-0.51422 0.51422,-0.51422c0.28282,0 0.51422,0.2314 0.51422,0.51422c0,0.28282 -0.2314,0.51422 -0.51422,0.51422c-0.28282,0 -0.51422,-0.2314 -0.51422,-0.51422zM15.25832,26.05687c0,0.28282 -0.2314,0.51422 -0.51422,0.51422c-0.28282,0 -0.51422,-0.2314 -0.51422,-0.51422c0,-0.28282 0.2314,-0.51422 0.51422,-0.51422c0.28282,0 0.51422,0.2314 0.51422,0.51422zM22.45735,33.25589c0,0.28282 -0.2314,0.51422 -0.51422,0.51422c-0.28282,0 -0.51422,-0.2314 -0.51422,-0.51422c0,-0.28282 0.2314,-0.51422 0.51422,-0.51422c0.28282,0 0.51422,0.2314 0.51422,0.51422zM21.42892,14.74411c0,-0.28282 0.2314,-0.51422 0.51422,-0.51422c0.28282,0 0.51422,0.2314 0.51422,0.51422c0,0.28282 -0.2314,0.51422 -0.51422,0.51422c-0.28282,0 -0.51422,-0.2314 -0.51422,-0.51422zM20.9147,17.8294c0,-0.56564 0.46279,-1.02843 1.02843,-1.02843c0.56564,0 1.02843,0.46279 1.02843,1.02843c0,0.56564 -0.46279,1.02843 -1.02843,1.02843c-0.56564,0 -1.02843,-0.46279 -1.02843,-1.02843zM23.48578,26.05687c0,0.8536 -0.68905,1.54265 -1.54265,1.54265c-0.8536,0 -1.54265,-0.68905 -1.54265,-1.54265c0,-0.8536 0.68905,-1.54265 1.54265,-1.54265c0.8536,0 1.54265,0.68905 1.54265,1.54265zM31.19903,26.05687c0,0.56564 -0.46279,1.02843 -1.02843,1.02843c-0.56564,0 -1.02843,-0.46279 -1.02843,-1.02843c0,-0.56564 0.46279,-1.02843 1.02843,-1.02843c0.56564,0 1.02843,0.46279 1.02843,1.02843zM31.19903,30.1706c0,0.56564 -0.46279,1.02843 -1.02843,1.02843c-0.56564,0 -1.02843,-0.46279 -1.02843,-1.02843c0,-0.56564 0.46279,-1.02843 1.02843,-1.02843c0.56564,0 1.02843,0.46279 1.02843,1.02843zM31.19903,21.94313c0,0.56564 -0.46279,1.02843 -1.02843,1.02843c-0.56564,0 -1.02843,-0.46279 -1.02843,-1.02843c0,-0.56564 0.46279,-1.02843 1.02843,-1.02843c0.56564,0 1.02843,0.46279 1.02843,1.02843zM31.19903,17.8294c0,0.56564 -0.46279,1.02843 -1.02843,1.02843c-0.56564,0 -1.02843,-0.46279 -1.02843,-1.02843c0,-0.56564 0.46279,-1.02843 1.02843,-1.02843c0.56564,0 1.02843,0.46279 1.02843,1.02843zM33.77011,26.05687c0,0.28282 -0.2314,0.51422 -0.51422,0.51422c-0.28282,0 -0.51422,-0.2314 -0.51422,-0.51422c0,-0.28282 0.2314,-0.51422 0.51422,-0.51422c0.28282,0 0.51422,0.2314 0.51422,0.51422zM27.0853,30.1706c0,0.56564 -0.46279,1.02843 -1.02843,1.02843c-0.56564,0 -1.02843,-0.46279 -1.02843,-1.02843c0,-0.56564 0.46279,-1.02843 1.02843,-1.02843c0.56564,0 1.02843,0.46279 1.02843,1.02843zM26.57108,33.25589c0,0.28282 -0.2314,0.51422 -0.51422,0.51422c-0.28282,0 -0.51422,-0.2314 -0.51422,-0.51422c0,-0.28282 0.2314,-0.51422 0.51422,-0.51422c0.28282,0 0.51422,0.2314 0.51422,0.51422zM23.48578,21.94313c0,0.8536 -0.68905,1.54265 -1.54265,1.54265c-0.8536,0 -1.54265,-0.68905 -1.54265,-1.54265c0,-0.8536 0.68905,-1.54265 1.54265,-1.54265c0.8536,0 1.54265,0.68905 1.54265,1.54265zM22.97157,30.1706c0,0.56564 -0.46279,1.02843 -1.02843,1.02843c-0.56564,0 -1.02843,-0.46279 -1.02843,-1.02843c0,-0.56564 0.46279,-1.02843 1.02843,-1.02843c0.56564,0 1.02843,0.46279 1.02843,1.02843zM27.59951,26.05687c0,0.8536 -0.68905,1.54265 -1.54265,1.54265c-0.8536,0 -1.54265,-0.68905 -1.54265,-1.54265c0,-0.8536 0.68905,-1.54265 1.54265,-1.54265c0.8536,0 1.54265,0.68905 1.54265,1.54265zM27.59951,21.94313c0,0.8536 -0.68905,1.54265 -1.54265,1.54265c-0.8536,0 -1.54265,-0.68905 -1.54265,-1.54265c0,-0.8536 0.68905,-1.54265 1.54265,-1.54265c0.8536,0 1.54265,0.68905 1.54265,1.54265z" fill="#ffffff" stroke-width="0"></path><path d="M2,24c0,-12.15026 9.84974,-22 22,-22c12.15026,0 22,9.84974 22,22c0,12.15026 -9.84974,22 -22,22c-12.15026,0 -22,-9.84974 -22,-22z" id="base 1 1 1" fill="none" stroke-width="1"></path><g fill="#000000" stroke-width="1" font-family="Roboto, sans-serif" font-weight="normal" font-size="14" text-anchor="start"></g><rect x="2" y="2" width="44" height="22" fill="none" stroke-width="1"></rect><path d="M2,24v-22h44v22z" fill="none" stroke-width="1"></path><path d="M2,24v-22h44v22z" fill="none" stroke-width="1"></path><path d="M2,24v-22h44v22z" fill="none" stroke-width="1"></path><path d="M2,24v-22h44v22z" fill="none" stroke-width="1"></path><path d="M33.625,14.375l9.375,0.625v8.75z" fill="url(#color-2)" stroke-width="1"></path><path d="M33,5l10,10h-8c-1,0 -2,-1 -2,-2z" fill="#6f4bc6" stroke-width="1"></path></g></svg>